<mxfile host="app.diagrams.net" modified="2023-12-04T12:30:47.251Z" agent="Mozilla/5.0 (Windows NT 10.0; Win64; x64; rv:120.0) Gecko/20100101 Firefox/120.0" etag="RpAjGf-6cAPVFhdXc8Xi" version="22.1.5" type="device">
  <diagram name="Страница — 1" id="39z0i_trN3clgHLVVww8">
    <mxGraphModel dx="1434" dy="754" grid="1" gridSize="10" guides="1" tooltips="1" connect="1" arrows="1" fold="1" page="1" pageScale="1" pageWidth="980" pageHeight="690" math="0" shadow="0">
      <root>
        <mxCell id="0" />
        <mxCell id="1" parent="0" />
        <mxCell id="kwY4FjRWMnpvxC7tIHpY-1" value="" style="whiteSpace=wrap;html=1;opacity=70;fillColor=#dae8fc;strokeColor=#6c8ebf;" vertex="1" parent="1">
          <mxGeometry x="300" y="40" width="320" height="560" as="geometry" />
        </mxCell>
        <mxCell id="kwY4FjRWMnpvxC7tIHpY-2" value="1. Выбор датацентра" style="text;html=1;strokeColor=none;fillColor=none;align=left;verticalAlign=middle;whiteSpace=wrap;rounded=0;fontStyle=1;fontSize=14;" vertex="1" parent="1">
          <mxGeometry x="320" y="50" width="290" height="30" as="geometry" />
        </mxCell>
        <mxCell id="kwY4FjRWMnpvxC7tIHpY-10" value="" style="strokeWidth=1;shadow=0;dashed=0;align=center;html=1;shape=mxgraph.mockup.forms.rrect;rSize=0;strokeColor=#36393d;fillColor=#ffcc99;recursiveResize=0;" vertex="1" parent="1">
          <mxGeometry x="360" y="80" width="200" height="120" as="geometry" />
        </mxCell>
        <mxCell id="kwY4FjRWMnpvxC7tIHpY-11" value="Москва" style="shape=ellipse;rSize=0;fillColor=#eeeeee;strokeColor=#999999;gradientColor=#cccccc;html=1;align=left;spacingLeft=4;fontSize=17;fontColor=#666666;labelPosition=right;" vertex="1" parent="kwY4FjRWMnpvxC7tIHpY-10">
          <mxGeometry x="8" y="7.5" width="15" height="15" as="geometry" />
        </mxCell>
        <mxCell id="kwY4FjRWMnpvxC7tIHpY-12" value="Санкт-Питербург" style="shape=ellipse;rSize=0;fillColor=#eeeeee;strokeColor=#999999;gradientColor=#cccccc;html=1;align=left;spacingLeft=4;fontSize=17;fontColor=#666666;labelPosition=right;" vertex="1" parent="kwY4FjRWMnpvxC7tIHpY-10">
          <mxGeometry x="8" y="37.5" width="15" height="15" as="geometry" />
        </mxCell>
        <mxCell id="kwY4FjRWMnpvxC7tIHpY-13" value="Екатеринбург" style="shape=ellipse;rSize=0;fillColor=#aaaaaa;strokeColor=#444444;gradientColor=#666666;html=1;align=left;spacingLeft=4;fontSize=17;fontColor=#008cff;labelPosition=right;" vertex="1" parent="kwY4FjRWMnpvxC7tIHpY-10">
          <mxGeometry x="8" y="67.5" width="15" height="15" as="geometry" />
        </mxCell>
        <mxCell id="kwY4FjRWMnpvxC7tIHpY-14" value="" style="shape=ellipse;fillColor=#444444;strokeColor=none;html=1;" vertex="1" parent="kwY4FjRWMnpvxC7tIHpY-13">
          <mxGeometry x="3" y="3" width="9" height="9" as="geometry" />
        </mxCell>
        <mxCell id="kwY4FjRWMnpvxC7tIHpY-15" value="Новосибирск" style="shape=ellipse;rSize=0;fillColor=#eeeeee;strokeColor=#999999;gradientColor=#cccccc;html=1;align=left;spacingLeft=4;fontSize=17;fontColor=#666666;labelPosition=right;" vertex="1" parent="kwY4FjRWMnpvxC7tIHpY-10">
          <mxGeometry x="8" y="97.5" width="15" height="15" as="geometry" />
        </mxCell>
        <mxCell id="kwY4FjRWMnpvxC7tIHpY-18" value="&lt;div align=&quot;left&quot;&gt;&lt;b&gt;&lt;font style=&quot;font-size: 14px;&quot;&gt;2. Конфигурация&lt;/font&gt;&lt;/b&gt;&lt;/div&gt;" style="text;html=1;strokeColor=none;fillColor=none;align=left;verticalAlign=middle;whiteSpace=wrap;rounded=0;" vertex="1" parent="1">
          <mxGeometry x="320" y="210" width="260" height="30" as="geometry" />
        </mxCell>
        <mxCell id="kwY4FjRWMnpvxC7tIHpY-20" value="" style="verticalLabelPosition=bottom;verticalAlign=top;html=1;shadow=0;dashed=0;strokeWidth=1;shape=mxgraph.android.progressScrubberPressed;dx=0.22;fillColor=#33b5e5;" vertex="1" parent="1">
          <mxGeometry x="340" y="260" width="185" height="16" as="geometry" />
        </mxCell>
        <mxCell id="kwY4FjRWMnpvxC7tIHpY-21" value="" style="verticalLabelPosition=bottom;verticalAlign=top;html=1;shadow=0;dashed=0;strokeWidth=1;shape=mxgraph.android.progressScrubberPressed;dx=0.43;fillColor=#33b5e5;" vertex="1" parent="1">
          <mxGeometry x="340" y="300" width="185" height="16" as="geometry" />
        </mxCell>
        <mxCell id="kwY4FjRWMnpvxC7tIHpY-22" value="" style="verticalLabelPosition=bottom;verticalAlign=top;html=1;shadow=0;dashed=0;strokeWidth=1;shape=mxgraph.android.progressScrubberPressed;dx=0.86;fillColor=#33b5e5;" vertex="1" parent="1">
          <mxGeometry x="340" y="345" width="185" height="16" as="geometry" />
        </mxCell>
        <mxCell id="kwY4FjRWMnpvxC7tIHpY-23" value="&lt;div align=&quot;left&quot;&gt;CPU, количество ядер&lt;/div&gt;" style="text;html=1;strokeColor=none;fillColor=none;align=left;verticalAlign=middle;whiteSpace=wrap;rounded=0;" vertex="1" parent="1">
          <mxGeometry x="340" y="240" width="190" height="20" as="geometry" />
        </mxCell>
        <mxCell id="kwY4FjRWMnpvxC7tIHpY-24" value="&lt;table cellpadding=&quot;0&quot; cellspacing=&quot;0&quot; style=&quot;width:100%;height:100%;&quot;&gt;&lt;tbody&gt;&lt;tr&gt;&lt;td style=&quot;width:85%&quot;&gt;2&lt;/td&gt;&lt;td style=&quot;width:15%&quot;&gt;&lt;/td&gt;&lt;/tr&gt;&lt;/tbody&gt;&lt;/table&gt;" style="strokeWidth=1;shadow=0;dashed=0;align=center;html=1;shape=mxgraph.mockup.forms.spinner;strokeColor=#999999;spinLayout=right;spinStyle=normal;adjStyle=triangle;fillColor=#aaddff;fontSize=17;fontColor=#666666;mainText=;html=1;overflow=fill;" vertex="1" parent="1">
          <mxGeometry x="540" y="246" width="60" height="30" as="geometry" />
        </mxCell>
        <mxCell id="kwY4FjRWMnpvxC7tIHpY-25" value="RAM, Гб" style="text;html=1;strokeColor=none;fillColor=none;align=left;verticalAlign=middle;whiteSpace=wrap;rounded=0;" vertex="1" parent="1">
          <mxGeometry x="340" y="280" width="190" height="20" as="geometry" />
        </mxCell>
        <mxCell id="kwY4FjRWMnpvxC7tIHpY-26" value="SSD, Гб" style="text;html=1;strokeColor=none;fillColor=none;align=left;verticalAlign=middle;whiteSpace=wrap;rounded=0;" vertex="1" parent="1">
          <mxGeometry x="340" y="325" width="190" height="20" as="geometry" />
        </mxCell>
        <mxCell id="kwY4FjRWMnpvxC7tIHpY-28" value="&lt;table cellpadding=&quot;0&quot; cellspacing=&quot;0&quot; style=&quot;width:100%;height:100%;&quot;&gt;&lt;tbody&gt;&lt;tr&gt;&lt;td style=&quot;width:85%&quot;&gt;8&lt;br&gt;&lt;/td&gt;&lt;td style=&quot;width:15%&quot;&gt;&lt;/td&gt;&lt;/tr&gt;&lt;/tbody&gt;&lt;/table&gt;" style="strokeWidth=1;shadow=0;dashed=0;align=center;html=1;shape=mxgraph.mockup.forms.spinner;strokeColor=#999999;spinLayout=right;spinStyle=normal;adjStyle=triangle;fillColor=#aaddff;fontSize=17;fontColor=#666666;mainText=;html=1;overflow=fill;" vertex="1" parent="1">
          <mxGeometry x="540" y="286" width="60" height="30" as="geometry" />
        </mxCell>
        <mxCell id="kwY4FjRWMnpvxC7tIHpY-29" value="&lt;table cellpadding=&quot;0&quot; cellspacing=&quot;0&quot; style=&quot;width:100%;height:100%;&quot;&gt;&lt;tbody&gt;&lt;tr&gt;&lt;td align=&quot;center&quot; style=&quot;width:85%&quot;&gt;500&lt;/td&gt;&lt;td style=&quot;width:15%&quot;&gt;&lt;/td&gt;&lt;/tr&gt;&lt;/tbody&gt;&lt;/table&gt;" style="strokeWidth=1;shadow=0;dashed=0;align=center;html=1;shape=mxgraph.mockup.forms.spinner;strokeColor=#999999;spinLayout=right;spinStyle=normal;adjStyle=triangle;fillColor=#aaddff;fontSize=17;fontColor=#666666;mainText=;html=1;overflow=fill;" vertex="1" parent="1">
          <mxGeometry x="540" y="330" width="60" height="30" as="geometry" />
        </mxCell>
        <mxCell id="kwY4FjRWMnpvxC7tIHpY-30" value="&lt;div align=&quot;left&quot;&gt;&lt;b&gt;&lt;font style=&quot;font-size: 14px;&quot;&gt;3. Выбор ОС&lt;br&gt;&lt;/font&gt;&lt;/b&gt;&lt;/div&gt;" style="text;html=1;strokeColor=none;fillColor=none;align=left;verticalAlign=middle;whiteSpace=wrap;rounded=0;" vertex="1" parent="1">
          <mxGeometry x="320" y="370" width="260" height="30" as="geometry" />
        </mxCell>
        <mxCell id="kwY4FjRWMnpvxC7tIHpY-31" value="Ubuntu" style="strokeWidth=1;shadow=0;dashed=0;align=center;html=1;shape=mxgraph.mockup.forms.comboBox;strokeColor=#36393d;fillColor=#cdeb8b;align=left;fillColor2=#aaddff;mainText=;fontSize=17;spacingLeft=3;" vertex="1" parent="1">
          <mxGeometry x="320" y="410" width="240" height="30" as="geometry" />
        </mxCell>
        <mxCell id="kwY4FjRWMnpvxC7tIHpY-32" value="" style="whiteSpace=wrap;html=1;opacity=70;fillColor=#dae8fc;strokeColor=#6c8ebf;" vertex="1" parent="1">
          <mxGeometry x="40" y="40" width="240" height="560" as="geometry" />
        </mxCell>
        <mxCell id="kwY4FjRWMnpvxC7tIHpY-33" value="Авторизация" style="text;html=1;strokeColor=none;fillColor=none;align=center;verticalAlign=middle;whiteSpace=wrap;rounded=0;fontStyle=1;fontSize=18;" vertex="1" parent="1">
          <mxGeometry x="60" y="80" width="200" height="40" as="geometry" />
        </mxCell>
        <mxCell id="kwY4FjRWMnpvxC7tIHpY-34" value="Логин" style="text;html=1;strokeColor=#36393d;fillColor=#ffff88;align=center;verticalAlign=middle;whiteSpace=wrap;rounded=0;fontStyle=1" vertex="1" parent="1">
          <mxGeometry x="60" y="120" width="200" height="40" as="geometry" />
        </mxCell>
        <mxCell id="kwY4FjRWMnpvxC7tIHpY-35" value="Пароль" style="text;html=1;strokeColor=#36393d;fillColor=#ffff88;align=center;verticalAlign=middle;whiteSpace=wrap;rounded=0;fontStyle=1" vertex="1" parent="1">
          <mxGeometry x="60" y="200" width="200" height="40" as="geometry" />
        </mxCell>
        <mxCell id="kwY4FjRWMnpvxC7tIHpY-36" value="Регистрация" style="text;html=1;strokeColor=none;fillColor=none;align=center;verticalAlign=middle;whiteSpace=wrap;rounded=0;fontStyle=1;fontSize=18;" vertex="1" parent="1">
          <mxGeometry x="60" y="375" width="200" height="40" as="geometry" />
        </mxCell>
        <mxCell id="kwY4FjRWMnpvxC7tIHpY-37" value="Перейти к регистрации" style="shape=rectangle;strokeColor=none;fillColor=none;linkText=;fontSize=17;fontColor=#0000ff;fontStyle=4;html=1;align=center;" vertex="1" parent="1">
          <mxGeometry x="60" y="415" width="200" height="41" as="geometry" />
        </mxCell>
        <mxCell id="kwY4FjRWMnpvxC7tIHpY-38" value="&lt;b&gt;&lt;font style=&quot;font-size: 14px;&quot;&gt;4. Дополнительный IP&lt;/font&gt;&lt;/b&gt;" style="text;html=1;strokeColor=none;fillColor=none;align=left;verticalAlign=middle;whiteSpace=wrap;rounded=0;" vertex="1" parent="1">
          <mxGeometry x="320" y="440" width="260" height="30" as="geometry" />
        </mxCell>
        <mxCell id="kwY4FjRWMnpvxC7tIHpY-39" value="Войти" style="strokeWidth=1;shadow=0;dashed=0;align=center;html=1;shape=mxgraph.mockup.buttons.button;strokeColor=#666666;fontColor=#ffffff;mainText=;buttonStyle=round;fontSize=17;fontStyle=1;fillColor=#008cff;whiteSpace=wrap;" vertex="1" parent="1">
          <mxGeometry x="80" y="285" width="150" height="40" as="geometry" />
        </mxCell>
        <mxCell id="kwY4FjRWMnpvxC7tIHpY-40" value="&lt;font size=&quot;1&quot; color=&quot;#000000&quot;&gt;&lt;b style=&quot;font-size: 16px;&quot;&gt;Добавить IP&lt;/b&gt;&lt;/font&gt;" style="strokeWidth=1;shadow=0;dashed=0;align=center;html=1;shape=mxgraph.mockup.forms.rrect;rSize=0;fillColor=#eeeeee;strokeColor=#999999;gradientColor=#cccccc;align=left;spacingLeft=4;fontSize=17;fontColor=#666666;labelPosition=right;" vertex="1" parent="1">
          <mxGeometry x="320" y="480" width="15" height="15" as="geometry" />
        </mxCell>
        <mxCell id="kwY4FjRWMnpvxC7tIHpY-42" value="Сформировать заказ" style="strokeWidth=1;shadow=0;dashed=0;align=center;html=1;shape=mxgraph.mockup.buttons.button;strokeColor=#666666;fontColor=#ffffff;mainText=;buttonStyle=round;fontSize=17;fontStyle=1;fillColor=#008cff;whiteSpace=wrap;" vertex="1" parent="1">
          <mxGeometry x="320" y="550" width="280" height="40" as="geometry" />
        </mxCell>
        <mxCell id="kwY4FjRWMnpvxC7tIHpY-43" value="Сросить всё" style="strokeWidth=1;shadow=0;dashed=0;align=center;html=1;shape=mxgraph.mockup.buttons.button;strokeColor=#2D7600;mainText=;buttonStyle=round;fontSize=17;fontStyle=1;fillColor=#60a917;whiteSpace=wrap;fontColor=#ffffff;" vertex="1" parent="1">
          <mxGeometry x="360" y="500" width="200" height="35" as="geometry" />
        </mxCell>
        <mxCell id="kwY4FjRWMnpvxC7tIHpY-44" value="" style="whiteSpace=wrap;html=1;opacity=70;fillColor=#dae8fc;strokeColor=#6c8ebf;" vertex="1" parent="1">
          <mxGeometry x="640" y="40" width="320" height="560" as="geometry" />
        </mxCell>
        <mxCell id="kwY4FjRWMnpvxC7tIHpY-45" value="Информация о заказе" style="text;html=1;strokeColor=none;fillColor=none;align=center;verticalAlign=middle;whiteSpace=wrap;rounded=0;fontStyle=1;fontSize=18;" vertex="1" parent="1">
          <mxGeometry x="680" y="80" width="240" height="40" as="geometry" />
        </mxCell>
        <mxCell id="kwY4FjRWMnpvxC7tIHpY-46" value="1. Заказ № #####" style="text;html=1;strokeColor=none;fillColor=none;align=left;verticalAlign=middle;whiteSpace=wrap;rounded=0;fontStyle=1;fontSize=14;" vertex="1" parent="1">
          <mxGeometry x="655" y="130" width="290" height="30" as="geometry" />
        </mxCell>
        <mxCell id="kwY4FjRWMnpvxC7tIHpY-47" value="2. Выбранные характеристики" style="text;html=1;strokeColor=none;fillColor=none;align=left;verticalAlign=middle;whiteSpace=wrap;rounded=0;fontStyle=1;fontSize=14;" vertex="1" parent="1">
          <mxGeometry x="655" y="170" width="290" height="30" as="geometry" />
        </mxCell>
        <mxCell id="kwY4FjRWMnpvxC7tIHpY-48" value="3. Цена ### руб/мес." style="text;html=1;strokeColor=none;fillColor=none;align=left;verticalAlign=middle;whiteSpace=wrap;rounded=0;fontStyle=1;fontSize=14;" vertex="1" parent="1">
          <mxGeometry x="655" y="415" width="290" height="30" as="geometry" />
        </mxCell>
        <mxCell id="kwY4FjRWMnpvxC7tIHpY-49" value="&lt;b&gt;&lt;font style=&quot;font-size: 15px;&quot;&gt;Инфо&lt;/font&gt;&lt;/b&gt;" style="text;html=1;strokeColor=#36393d;fillColor=#ffff88;align=center;verticalAlign=middle;whiteSpace=wrap;rounded=0;" vertex="1" parent="1">
          <mxGeometry x="655" y="210" width="265" height="190" as="geometry" />
        </mxCell>
        <mxCell id="kwY4FjRWMnpvxC7tIHpY-50" value="Перейти к оплате" style="strokeWidth=1;shadow=0;dashed=0;align=center;html=1;shape=mxgraph.mockup.buttons.button;strokeColor=#666666;fontColor=#ffffff;mainText=;buttonStyle=round;fontSize=17;fontStyle=1;fillColor=#008cff;whiteSpace=wrap;" vertex="1" parent="1">
          <mxGeometry x="655" y="467.5" width="280" height="40" as="geometry" />
        </mxCell>
        <mxCell id="kwY4FjRWMnpvxC7tIHpY-51" value="Отмена" style="strokeWidth=1;shadow=0;dashed=0;align=center;html=1;shape=mxgraph.mockup.buttons.button;strokeColor=#b85450;mainText=;buttonStyle=round;fontSize=17;fontStyle=1;fillColor=#f8cecc;whiteSpace=wrap;" vertex="1" parent="1">
          <mxGeometry x="720" y="530" width="160" height="40" as="geometry" />
        </mxCell>
      </root>
    </mxGraphModel>
  </diagram>
</mxfile>
